<svg width="500" height="500"  fill="none" xmlns="http://www.w3.org/2000/svg">
<path d="M194.292 153.232L111.663 100.54L101.985 115.717L184.614 168.409C189.672 171.635 192.615 166.09 194.09 163.778C195.565 161.465 198.929 156.189 194.292 153.232Z" fill="#ECECEC"/>
<circle cx="105.137" cy="107.053" r="75" transform="rotate(-57.4746 105.137 107.053)" fill="#ECECEC"/>
<circle cx="105.828" cy="106.9" r="62.5" transform="rotate(-57.4746 105.828 106.9)" fill="#8A3F15"/>
<path d="M63.5386 100.084C63.5386 133.502 73.5495 140.291 87.0914 157C63.5185 157 51 133.13 51 104.291C51 75.4526 73.455 51 101.155 51C128.855 51 63.5386 66.6649 63.5386 100.084Z" fill="#783713"/>
<path d="M165 107C165 134.816 145.526 157.72 120.5 160.677C118.694 160.89 116.859 161 115 161C139.561 158.84 161.5 136.823 161.5 107C161.5 77.1767 138.561 53.323 115 53C116.859 53 118.694 53.1095 120.5 53.323C145.526 56.2803 165 79.1842 165 107Z" fill="#CAAD9C"/>
<path d="M49.96 102.4C49.96 98.64 51.96 95.1733 55.96 92L63.28 96.88C59.9733 98.96 58.32 101.16 58.32 103.48C58.32 104.467 58.6533 105.507 59.32 106.6C59.9867 107.693 60.6533 108.773 61.32 109.84C62.0133 110.907 62.36 111.907 62.36 112.84C62.36 116.707 59.6933 119.693 54.36 121.8L52.44 119.2C53.7467 118.48 54.6533 117.787 55.16 117.12C55.6667 116.453 55.92 115.72 55.92 114.92C55.92 114.12 55.6 113.227 54.96 112.24C54.3467 111.227 53.6667 110.307 52.92 109.48C52.2 108.653 51.52 107.6 50.88 106.32C50.2667 105.04 49.96 103.733 49.96 102.4ZM66.8266 93.96L87.2666 93.4L87.1466 96.08L81.5466 96.64L79.0666 120.16L74.6666 120.56L72.6666 97.52L67.0666 98.08L66.8266 93.96ZM86.8953 120L94.3753 93.4L104.055 94L109.255 120L105.655 120.6L102.895 113.96L92.2553 114.84L90.8953 120.6L86.8953 120ZM96.1353 98.44L92.9753 111.76L102.015 111.84L96.4553 98.44L96.1353 98.44ZM123.682 109.84C123.202 110 122.816 110.08 122.522 110.08L121.442 120.16L117.442 120.56L115.162 94.8C116.576 94.3467 118.442 93.9333 120.762 93.56C123.109 93.1867 125.349 93 127.482 93C130.896 93 133.629 93.64 135.682 94.92C136.162 96.36 136.402 97.68 136.402 98.88C136.402 102.24 134.469 105.013 130.602 107.2L137.322 119.96L134.522 121.52L123.682 109.84ZM128.682 99.96C128.682 98.0667 127.842 96.6133 126.162 95.6C125.522 95.6 124.802 95.7333 124.002 96L122.802 107.52C124.642 106.693 126.082 105.587 127.122 104.2C128.162 102.787 128.682 101.373 128.682 99.96ZM140.928 93.96L161.368 93.4L161.248 96.08L155.648 96.64L153.168 120.16L148.768 120.56L146.768 97.52L141.168 98.08L140.928 93.96Z" fill="black"/>
</svg>
